<?xml version="1.0" encoding="UTF-8" standalone="no"?>
<svg
   xmlns:dc="http://purl.org/dc/elements/1.1/"
   xmlns:cc="http://creativecommons.org/ns#"
   xmlns:rdf="http://www.w3.org/1999/02/22-rdf-syntax-ns#"
   xmlns:svg="http://www.w3.org/2000/svg"
   xmlns="http://www.w3.org/2000/svg"
   xmlns:sodipodi="http://sodipodi.sourceforge.net/DTD/sodipodi-0.dtd"
   xmlns:inkscape="http://www.inkscape.org/namespaces/inkscape"
   viewBox="0 0 99.406843 100.01209"
   id="svg4691"
   version="1.1"
   inkscape:version="0.91 r13725"
   sodipodi:docname="icon_start_flattened.svg"
   width="99.406845"
   height="100.01209"
   inkscape:export-filename="/Users/user/AndroidStudioProjects/CampGladiatorChallenge/art/icon_start_flattened.png"
   inkscape:export-xdpi="230.373"
   inkscape:export-ydpi="230.373">
  <metadata
     id="metadata4699">
    <rdf:RDF>
      <cc:Work
         rdf:about="">
        <dc:format>image/svg+xml</dc:format>
        <dc:type
           rdf:resource="http://purl.org/dc/dcmitype/StillImage" />
        <dc:title></dc:title>
      </cc:Work>
    </rdf:RDF>
  </metadata>
  <defs
     id="defs4697" />
  <sodipodi:namedview
     pagecolor="#ffffff"
     bordercolor="#666666"
     borderopacity="1"
     objecttolerance="10"
     gridtolerance="10"
     guidetolerance="10"
     inkscape:pageopacity="0"
     inkscape:pageshadow="2"
     inkscape:window-width="1435"
     inkscape:window-height="859"
     id="namedview4695"
     showgrid="false"
     fit-margin-top="5"
     fit-margin-left="5"
     fit-margin-right="5"
     fit-margin-bottom="5"
     inkscape:snap-bbox="true"
     inkscape:bbox-paths="true"
     inkscape:bbox-nodes="true"
     inkscape:snap-object-midpoints="true"
     inkscape:snap-page="true"
     inkscape:zoom="3.7083822"
     inkscape:cx="51.098578"
     inkscape:cy="33.403417"
     inkscape:window-x="0"
     inkscape:window-y="202"
     inkscape:window-maximized="0"
     inkscape:current-layer="layer3" />
  <g
     inkscape:groupmode="layer"
     id="layer3"
     inkscape:label="all">
    <path
       style="fill:#0db1c2;fill-opacity:0.46527782;stroke:none;stroke-opacity:1"
       d="M 14.15625 0 C 6.3132046 0 0 6.3132046 0 14.15625 L 0 85.855469 C 0 93.698514 6.3132046 100.01172 14.15625 100.01172 L 85.25 100.01172 C 93.093045 100.01172 99.40625 93.698514 99.40625 85.855469 L 99.40625 14.15625 C 99.40625 6.3132046 93.093045 0 85.25 0 L 14.15625 0 z M 25.761719 54.794922 C 29.999979 54.794922 33.563154 55.996054 36.451172 58.396484 C 39.189163 60.721901 40.558594 63.441629 40.558594 66.554688 C 40.558594 70.042813 39.057179 72.779722 36.056641 74.767578 C 38.307044 76.0053 40.032207 77.581298 41.232422 79.494141 C 42.432637 81.369477 43.033203 83.601489 43.033203 86.189453 C 43.033203 87.389668 42.62007 88.833682 41.794922 90.521484 C 40.969774 92.209287 40.051744 93.521316 39.039062 94.458984 C 36.113538 97.009442 32.156363 98.285156 27.167969 98.285156 C 26.380327 98.285156 25.255731 98.210574 23.792969 98.060547 C 22.330206 97.873013 21.073626 97.779297 20.023438 97.779297 C 17.885554 97.779297 15.29781 98.060446 12.259766 98.623047 C 11.397111 98.773074 10.964844 98.453657 10.964844 97.666016 C 10.964844 97.365962 11.245993 96.859112 11.808594 96.146484 C 12.483715 95.28383 12.822266 94.159233 12.822266 92.771484 L 12.822266 66.554688 C 12.897279 64.829378 12.61613 63.779364 11.978516 63.404297 C 10.928327 62.804189 10.402344 62.316474 10.402344 61.941406 C 10.402344 61.341299 10.702627 60.683331 11.302734 59.970703 C 12.690483 58.2829 14.754196 57.009139 17.492188 56.146484 C 20.455219 55.246323 23.211261 54.794922 25.761719 54.794922 z M 24.748047 60.365234 C 22.947724 60.365234 21.59938 60.665517 20.699219 61.265625 C 20.174125 61.603186 20.210439 61.884335 20.810547 62.109375 C 21.898242 62.484442 22.441406 63.796471 22.441406 66.046875 L 22.441406 73.699219 C 23.379074 73.961766 24.147939 74.09375 24.748047 74.09375 C 26.810917 74.09375 28.480631 73.435782 29.755859 72.123047 C 31.068595 70.810311 31.724609 69.197999 31.724609 67.285156 C 31.724609 65.259793 31.03228 63.609213 29.644531 62.333984 C 28.294289 61.021249 26.66089 60.365234 24.748047 60.365234 z M 25.761719 77.636719 C 24.749037 77.636719 23.641622 77.768703 22.441406 78.03125 L 22.441406 89.396484 C 22.441406 90.184126 22.273107 90.970171 21.935547 91.757812 C 23.135762 92.770494 24.373209 93.277344 25.648438 93.277344 C 27.936348 93.277344 29.831762 92.433896 31.332031 90.746094 C 32.71978 89.208318 33.412109 87.444888 33.412109 85.457031 C 33.412109 82.981587 32.419497 80.937008 30.431641 79.324219 C 29.081398 78.199017 27.524535 77.636719 25.761719 77.636719 z "
       id="rect5265" />
    <path
       d="m 84.299997,49.805994 c 6.1,-4.7 10.3,-11.5 10.1,-20.300001 -0.2,-13.8 -11.9,-24.7999991 -25.8,-24.4999991 -13.900001,0.3 -24.600001,11.9999991 -24.400001,25.5000001 0.3,13.5 -9.7,15 -15,15.1 -4.1,0.1 -15.499996,-3.6 -15.399996,-15.800001 0.3,-11.3 9.999996,-15.4 15.599996,-15.5 1.8,0 3.1,0.3 3.1,0.3 l 6,-7.1999991 c 0,0 -3.8,-1.8 -9,-1.8 -12.999996,0 -24.4999959,10.4999991 -24.4999959,24.1999991 0,13.700001 10.6999999,24.7 24.2999959,24.8 13.6,0.1 20.1,-9.199999 20.1,-9.199999 4.6,5.899999 11.800001,9.499999 20.000001,9.299999 9.1,-0.2 15.8,7 16,15.6 0.2,8.6 -6.6,15.7 -15.2,15.8 -8.5,0.2 -15.600001,-6.6 -15.800001,-15.1 0,-1 0.1,-2 0.2,-2.9 l -7.5,-6.1 c -1.1,2.8 -1.6,5.9 -1.5,9.1 0.2,13.4 11.4,24.199997 24.900001,23.899997 13.5,-0.299997 24.2,-11.399997 23.9,-24.899997 -0.3,-13.5 -10.1,-20.299999 -10.1,-20.299999 m -15,-4.8 c -8.4,0.2 -15.300001,-6.5 -15.400001,-14.8 -0.2,-8.400001 6.500001,-15.300001 14.800001,-15.500001 8.4,-0.2 15.3,6.5 15.4,14.8 0.2,8.400001 -6.4,15.400001 -14.8,15.500001"
       id="path4693"
       inkscape:connector-curvature="0"
       style="fill:#b72025" />
  </g>
</svg>
